<svg xmlns="http://www.w3.org/2000/svg" viewBox="0 0 900 265" fill="none">
<path d="M309.746 119.705H295.587V63.2729H309.746V119.705Z" fill="currentColor"/>
<path d="M394.844 119.705H381.191V97.3548H341.041V119.705H327.388V63.2729H341.041V85.4211H381.191V63.2729H394.844V119.705Z" fill="currentColor"/>
<path d="M458.034 119.705H444.381V101.501L440.943 98.0627L419.705 119.705H402.917L431.942 88.9607L406.76 63.2729H423.548L444.381 84.2075V63.2729H458.034V84.2075L478.867 63.2729H495.757L470.372 88.9607L499.6 119.705H482.711L461.371 98.1638L458.034 101.501V119.705Z" fill="currentColor"/>
<path d="M564.768 119.705H507.729V63.2729H564.768V74.0942H521.382V86.3313H556.88V96.3434H521.382V108.884H564.768V119.705Z" fill="currentColor"/>
<path d="M646.195 119.705H632.542V97.3548H592.392V119.705H578.739V63.2729H592.392V85.4211H632.542V63.2729H646.195V119.705Z" fill="currentColor"/>
<path d="M720.813 119.705H663.774V63.2729H720.813V74.0942H677.427V86.3313H712.925V96.3434H677.427V108.884H720.813V119.705Z" fill="currentColor"/>
<path d="M773.923 102.715H748.437V119.705H734.784V63.2729H773.923C790.913 63.2729 796.475 74.5998 796.475 82.8927C796.475 91.2868 790.913 102.715 773.923 102.715ZM770.889 75.2066H748.437V90.7811H770.889C780.395 90.7811 781.912 86.3313 781.912 82.8927C781.912 79.6565 780.395 75.2066 770.889 75.2066Z" fill="currentColor"/>
<path d="M823.311 119.705H809.153V63.2729H823.311V119.705Z" fill="currentColor"/>
<path d="M851.674 119.705H836.504L849.045 100.793C840.853 97.0514 837.819 89.2641 837.819 82.9939C837.819 74.701 843.483 63.2729 860.372 63.2729H899.409V119.705H885.756V102.917H862.799L851.674 119.705ZM885.756 75.4089H862.495C853.798 75.4089 852.382 79.7576 852.382 82.9939C852.382 86.5335 853.798 90.7811 862.495 90.7811H885.756V75.4089Z" fill="currentColor"/>
<path d="M352.462 180.119C352.462 193.784 339.253 202.135 322.854 202.135C306.608 202.135 293.246 193.784 293.246 180.119C293.246 166.454 306.608 158.255 322.854 158.255C339.253 158.255 352.462 166.454 352.462 180.119ZM341.454 180.119C341.454 172.148 333.71 167.365 322.854 167.365C311.998 167.365 304.254 172.148 304.254 180.119C304.254 188.09 311.998 193.101 322.854 193.101C333.71 193.101 341.454 188.09 341.454 180.119Z" fill="currentColor"/>
<path d="M409.777 189.457V198.567C404.159 200.997 398.161 202.135 390.721 202.135C371.59 202.135 359.975 194.24 359.975 180.119C359.975 165.998 371.59 158.255 390.721 158.255C398.086 158.255 404.159 159.469 409.777 161.975V171.616C405.905 169.491 399.452 167.289 390.873 167.289C378.195 167.289 370.983 172.072 370.983 180.119C370.983 188.166 378.043 193.177 391.177 193.177C399.3 193.177 406.285 191.279 409.777 189.457Z" fill="currentColor"/>
<path d="M476.274 180.119C476.274 193.784 463.064 202.135 446.666 202.135C430.42 202.135 417.058 193.784 417.058 180.119C417.058 166.454 430.42 158.255 446.666 158.255C463.064 158.255 476.274 166.454 476.274 180.119ZM465.266 180.119C465.266 172.148 457.522 167.365 446.666 167.365C435.81 167.365 428.066 172.148 428.066 180.119C428.066 188.09 435.81 193.101 446.666 193.101C457.522 193.101 465.266 188.09 465.266 180.119Z" fill="currentColor"/>
<path d="M517.115 183.459H496.844V193.177H517.115C521.138 193.177 524.023 192.114 524.023 188.318C524.023 184.522 521.138 183.459 517.115 183.459ZM531.159 158.938V167.061H496.844V175.944H517.266C524.555 175.944 535.031 177.993 535.031 188.318C535.031 199.099 525.238 201.3 517.266 201.3H486.595V158.938H531.159Z" fill="currentColor"/>
<path d="M583.439 176.855L544.72 202.135V158.938H554.969V183.459L593.688 158.255V201.3H583.439V176.855Z" fill="currentColor"/>
<path d="M653.916 189.457V198.567C648.298 200.997 642.301 202.135 634.861 202.135C615.729 202.135 604.114 194.24 604.114 180.119C604.114 165.998 615.729 158.255 634.861 158.255C642.225 158.255 648.298 159.469 653.916 161.975V171.616C650.044 169.491 643.591 167.289 635.013 167.289C622.334 167.289 615.122 172.072 615.122 180.119C615.122 188.166 622.182 193.177 635.316 193.177C643.44 193.177 650.424 191.279 653.916 189.457Z" fill="currentColor"/>
<path d="M688.669 201.3H678.42V167.82H659.668V158.938H707.345V167.82H688.669V201.3Z" fill="currentColor"/>
<path d="M769.864 180.119C769.864 193.784 756.654 202.135 740.256 202.135C724.009 202.135 710.648 193.784 710.648 180.119C710.648 166.454 724.009 158.255 740.256 158.255C756.654 158.255 769.864 166.454 769.864 180.119ZM758.856 180.119C758.856 172.148 751.112 167.365 740.256 167.365C729.4 167.365 721.656 172.148 721.656 180.119C721.656 188.09 729.4 193.101 740.256 193.101C751.112 193.101 758.856 188.09 758.856 180.119Z" fill="currentColor"/>
<path d="M827.179 189.457V198.567C821.561 200.997 815.563 202.135 808.123 202.135C788.992 202.135 777.376 194.24 777.376 180.119C777.376 165.998 788.992 158.255 808.123 158.255C815.487 158.255 821.561 159.469 827.179 161.975V171.616C823.307 169.491 816.854 167.289 808.275 167.289C795.597 167.289 788.384 172.072 788.384 180.119C788.384 188.166 795.445 193.177 808.579 193.177C816.702 193.177 823.686 191.279 827.179 189.457Z" fill="currentColor"/>
<path d="M861.931 201.3H851.682V167.82H832.931V158.938H880.607V167.82H861.931V201.3Z" fill="currentColor"/>
<path d="M899.501 201.3H888.873V158.938H899.501V201.3Z" fill="currentColor"/>
<path d="M129.069 242.578C134.944 236.659 134.944 227.063 129.069 221.145C123.194 215.227 113.669 215.227 107.794 221.145C101.919 227.063 101.919 236.659 107.794 242.578C113.669 248.496 123.194 248.496 129.069 242.578Z" fill="#EB2020"/>
<path d="M122.276 148.657C131.284 146.516 136.862 137.424 134.736 128.35C132.61 119.276 123.585 113.656 114.578 115.797C105.57 117.939 99.9919 127.031 102.118 136.105C104.244 145.179 113.269 150.799 122.276 148.657Z" fill="#00A652"/>
<path d="M129.069 43.447C134.944 37.5286 134.944 27.9329 129.069 22.0144C123.194 16.096 113.669 16.096 107.794 22.0144C101.919 27.9329 101.919 37.5286 107.794 43.447C113.669 49.3654 123.194 49.3654 129.069 43.447Z" fill="#A4108C"/>
<path d="M172.426 26.4961C168.648 24.5236 164.75 22.7499 160.75 21.1911C161.736 24.8704 162.263 28.7377 162.263 32.7313C162.263 33.0402 162.26 33.349 162.254 33.6561C162.192 36.7394 161.815 39.745 161.155 42.6405C160.508 45.4853 159.588 48.2254 158.424 50.8301C157.282 53.3895 155.904 55.819 154.319 58.0894C152.619 60.5279 150.679 62.7839 148.536 64.825C144.932 68.2569 140.753 71.0783 136.156 73.1266L124.148 64.9532C128.406 64.191 132.38 62.5943 135.892 60.3346C138.737 58.5049 141.282 56.2416 143.432 53.6352C145.242 51.4406 146.774 49.0021 147.971 46.3758C149.144 43.8073 149.994 41.0582 150.473 38.1826C150.767 36.4071 150.921 34.5863 150.921 32.7277C150.921 31.5374 150.858 30.3597 150.734 29.2019C150.257 24.7115 148.879 20.4939 146.784 16.7332C141.219 6.75001 130.606 0 118.43 0C106.254 0 95.7615 6.67234 90.1727 16.5652C88.0552 20.3132 86.6513 24.5254 86.1475 29.0104C86.0094 30.2314 85.9395 31.4741 85.9395 32.7313C85.9395 34.5231 86.0829 36.2788 86.3573 37.993C86.8181 40.8703 87.6536 43.6231 88.8101 46.1988C89.9898 48.8323 91.5085 51.2798 93.3069 53.4871C95.4423 56.1062 97.9722 58.3857 100.805 60.2317C100.819 60.2281 100.836 60.2226 100.852 60.219L101.669 60.7772L119.294 72.7726L124.684 76.4411L136.398 84.4139L144.47 89.9068L144.484 89.9176C145.302 90.436 146.101 90.9815 146.883 91.5505L146.894 91.5577C159.33 100.571 167.425 115.279 167.425 131.892C167.425 152.806 154.591 170.699 136.425 178.018L126.04 171.165C144.154 167.594 157.82 151.515 157.82 132.22C157.82 117.974 150.37 105.484 139.18 98.4829L139.139 98.4558L122.05 87.3581L114.374 82.3747C114.374 82.3747 92.6309 68.9848 88.1287 64.6444C85.9987 62.5925 84.073 60.3238 82.3858 57.8763C80.8134 55.595 79.4525 53.1583 78.3247 50.5916C77.1754 47.978 76.2717 45.2343 75.6406 42.384C74.9987 39.4849 74.6401 36.4775 74.5953 33.3942C74.5917 33.1756 74.5899 32.9535 74.5899 32.7331C74.5899 28.6473 75.1404 24.6916 76.1713 20.9364C72.1604 22.4717 68.2535 24.222 64.4649 26.1728C26.2027 45.8628 0 85.9583 0 132.22C0 178.482 26.2188 218.605 64.508 238.29C68.1961 240.186 71.9955 241.893 75.8934 243.396C74.8571 239.632 74.303 235.665 74.303 231.568C74.303 231.35 74.303 231.133 74.3084 230.916C74.3532 227.829 74.71 224.818 75.3537 221.918C75.9831 219.067 76.8885 216.32 78.0378 213.706C79.0562 211.389 80.2683 209.174 81.6525 207.088L91.1338 213.569C90.1835 215.03 89.3462 216.571 88.6343 218.182C87.494 220.765 86.6746 223.523 86.23 226.406C85.9736 228.059 85.8409 229.751 85.8409 231.476C85.8409 232.808 85.9198 234.119 86.074 235.409C86.6083 239.913 88.0516 244.136 90.214 247.888C95.8386 257.645 106.324 264.208 118.332 264.208C130.339 264.208 140.905 257.595 146.512 247.776C148.66 244.017 150.087 239.787 150.603 235.278C150.749 234.03 150.82 232.762 150.82 231.476C150.82 229.706 150.681 227.97 150.413 226.276C149.958 223.395 149.126 220.639 147.975 218.061C146.801 215.431 145.291 212.986 143.503 210.78C141.635 208.477 139.462 206.434 137.045 204.718L137.013 204.697L136.066 204.048L136.057 204.043C135.429 203.631 134.788 203.239 134.131 202.872C134.182 202.86 134.232 202.849 134.284 202.836C134.284 202.836 134.287 202.836 134.289 202.836L117.32 191.238L112.296 187.804L100.495 179.738L93.0989 174.682C91.3184 173.625 89.6115 172.455 87.9835 171.185H87.9799C76.3345 162.101 68.8398 147.881 68.8398 131.897C68.8398 111.024 81.622 93.1581 99.7329 85.812L110.993 93.2448C92.7923 96.7471 79.0347 112.868 79.0347 132.224C79.0347 145.971 85.9736 158.086 96.5145 165.21L96.5468 165.232L97.5957 165.916H97.5993L114.342 176.839L121.408 181.448C121.408 181.448 142.817 194.594 147.234 198.55C149.843 200.885 152.174 203.53 154.17 206.427C155.742 208.707 157.103 211.145 158.233 213.71C159.382 216.324 160.286 219.071 160.917 221.921C161.56 224.822 161.919 227.833 161.962 230.92C161.966 231.137 161.967 231.353 161.967 231.572C161.967 235.67 161.413 239.635 160.377 243.399C164.497 241.81 168.506 239.995 172.392 237.966C210.338 218.168 236.27 178.248 236.27 132.224C236.27 86.2003 210.356 46.3054 172.428 26.4997L172.426 26.4961ZM118.47 56.1477C112.904 56.1477 107.794 54.1771 103.794 50.8897C101.363 48.8938 99.3403 46.4138 97.8718 43.5924C96.5665 41.0889 95.7005 38.3199 95.3724 35.3865C95.2738 34.5159 95.2254 33.629 95.2254 32.7313C95.2254 30.5421 95.5248 28.4234 96.0824 26.4112C97.4756 21.3844 100.493 17.0421 104.527 13.9913C108.411 11.0525 113.238 9.31129 118.471 9.31129C123.705 9.31129 128.636 11.0905 132.541 14.0871C136.552 17.1649 139.539 21.5271 140.9 26.5629C141.432 28.5281 141.716 30.5945 141.716 32.7295C141.716 33.6814 141.66 34.6189 141.549 35.5419C141.201 38.4716 140.315 41.237 138.994 43.7315C137.507 46.542 135.469 49.0094 133.025 50.989C129.041 54.215 123.981 56.1477 118.471 56.1477H118.47ZM64.3699 225.787C32.3616 207.079 10.835 172.184 10.835 132.22C10.835 92.2567 32.3741 57.3398 64.3986 38.6378C64.7249 41.7193 65.3076 44.7231 66.1216 47.6312C38.0615 65.179 19.3768 96.5015 19.3768 132.22C19.3768 167.939 38.0328 199.213 66.0571 216.77C65.2538 219.685 64.6855 222.7 64.3717 225.788L64.3699 225.787ZM69.0496 208.539C44.2688 192.329 27.8773 164.202 27.8773 132.219C27.8773 100.235 44.3118 72.0338 69.15 55.837C70.3244 58.3766 71.6889 60.8097 73.2219 63.1199C50.8974 77.8753 36.1573 103.313 36.1573 132.22C36.1573 161.128 50.8418 186.468 73.0928 201.236C71.5687 203.553 70.215 205.992 69.0514 208.539H69.0496ZM90.4865 79.705C71.9471 89.6702 59.3298 109.349 59.3298 132C59.3298 154.65 71.3034 173.311 89.0629 183.506L89.0772 183.515C89.59 183.809 90.1082 184.098 90.6317 184.374C90.5797 184.405 90.5277 184.436 90.4775 184.466L100.357 191.191L112.282 199.309L120.083 204.619L129.511 211.038C130.753 211.736 131.926 212.543 133.016 213.448C135.42 215.448 137.42 217.924 138.868 220.734C140.161 223.24 141.016 226.012 141.336 228.946C141.427 229.791 141.475 230.649 141.475 231.518C141.475 233.745 141.167 235.898 140.591 237.939C139.157 243.011 136.071 247.38 131.955 250.419C128.109 253.258 123.364 254.934 118.229 254.934C113.094 254.934 108.382 253.269 104.542 250.448C100.42 247.415 97.3231 243.051 95.8816 237.984C95.2971 235.931 94.9833 233.759 94.9833 231.518C94.9833 230.665 95.0281 229.82 95.1178 228.991C95.4298 226.056 96.2814 223.283 97.5688 220.774C97.922 220.082 98.3129 219.409 98.7324 218.76C100.02 216.77 101.598 214.987 103.407 213.477C104.248 212.774 105.139 212.131 106.073 211.551L97.9184 206.003L88.1502 199.354L79.3592 193.37C58.9623 180.397 45.4145 157.486 45.4145 131.388C45.4145 105.289 58.6055 82.9852 78.5542 69.9241C81.1289 72.7274 83.9941 75.2562 87.0996 77.467L87.1085 77.4725L90.3 79.5786L90.3108 79.5858C90.37 79.6219 90.4309 79.6598 90.4919 79.6942C90.4883 79.6942 90.4865 79.6978 90.4829 79.6996L90.4865 79.705ZM90.5349 132.22C90.5349 116.699 103.025 104.117 118.432 104.117C133.839 104.117 146.327 116.699 146.327 132.22C146.327 147.742 133.837 160.322 118.432 160.322C103.027 160.322 90.5349 147.74 90.5349 132.22ZM145.947 184.208C145.92 184.223 145.897 184.237 145.87 184.25L144.834 183.567C145.207 183.777 145.58 183.99 145.947 184.208C164.397 174.212 176.939 154.582 176.939 132C176.939 109.418 164.461 89.8869 146.087 79.8676C146.082 79.8712 146.074 79.8766 146.069 79.8784L145.926 79.7791C145.979 79.808 146.033 79.8369 146.087 79.8658C150.532 77.216 154.568 73.943 158.078 70.1697C177.821 83.267 190.851 105.796 190.851 131.391C190.851 156.986 177.466 180.124 157.273 193.14C153.917 189.683 150.109 186.674 145.947 184.206V184.208ZM163.588 200.963C185.61 186.159 200.117 160.897 200.117 132.222C200.117 103.548 185.552 78.1877 163.459 63.3962C165.006 61.0951 166.383 58.6693 167.574 56.1369C192.158 72.3806 208.395 100.392 208.395 132.224C208.395 164.056 192.202 191.99 167.676 208.246C166.496 205.706 165.128 203.273 163.59 200.967L163.588 200.963ZM172.455 225.461C172.125 222.375 171.537 219.364 170.717 216.454C198.462 198.841 216.895 167.699 216.895 132.222C216.895 96.7453 198.433 65.5547 170.649 47.9491C171.481 45.0482 172.082 42.0462 172.428 38.9665C204.146 57.7463 225.435 92.4807 225.435 132.222C225.435 171.964 204.158 206.678 172.456 225.463L172.455 225.461Z" fill="currentColor"/>
</svg>
